<svg xmlns="http://www.w3.org/2000/svg" width="96" height="18" fill="none"><path fill="#363F4D" d="M12.3 15.8c-.5.44-1.18.85-2.1 1.22-.92.37-2.08.55-3.48.55-2 0-3.6-.64-4.85-1.92C.62 14.35 0 12.7 0 10.63v-.48c0-2.13.6-3.86 1.84-5.2 1.23-1.33 2.84-2 4.82-2 1.15 0 2.2.18 3.15.54.98.33 1.78.8 2.4 1.4v2.87h-2.17l-.42-1.9c-.26-.22-.6-.4-1.06-.53-.44-.13-.94-.2-1.52-.2-1.27 0-2.27.46-3 1.37-.7.93-1.06 2.13-1.06 3.6v.5c0 1.47.35 2.6 1.05 3.5.7.85 1.7 1.3 3.03 1.3.6 0 1.08-.07 1.44-.17.37-.1.66-.2.87-.34v-2.4l-2.1-.18v-2h5.06v5.46zm1.56-.14l1.42-.3V8.83l-1.57-.3v-1.7h4.34l.13 1.53c.25-.55.6-.97 1-1.28.4-.3.86-.46 1.4-.46.15 0 .3.03.48.05.17.02.32.05.43.08l-.3 2.6-1.22-.03c-.43 0-.8.08-1.07.24-.3.16-.5.4-.66.7v5.13l1.4.3v1.7h-5.77v-1.7zm27.6-.26c.54 0 .96-.16 1.28-.45.3-.3.47-.7.47-1.2h2.7l.02.06c.04 1.1-.38 2-1.23 2.7-.87.7-1.93 1.08-3.2 1.08-1.64 0-2.9-.5-3.78-1.5-.88-1-1.32-2.27-1.32-3.83v-.3c0-1.54.45-2.82 1.35-3.82.9-1 2.2-1.5 3.88-1.5.9 0 1.7.12 2.4.37s1.27.6 1.74 1.07l.04 2.82h-2.4l-.47-1.67c-.15-.13-.33-.23-.55-.3-.2-.1-.46-.13-.74-.13-.82 0-1.4.3-1.75.9-.36.57-.53 1.33-.53 2.25v.3c0 .94.16 1.7.48 2.28.32.57.88.86 1.67.86zm10.82 2.17c-1.57 0-2.83-.5-3.78-1.46-.94-.96-1.4-2.2-1.4-3.7V12c0-1.57.43-2.86 1.32-3.88.9-1 2.1-1.5 3.6-1.5 1.48 0 2.62.42 3.44 1.28.8.86 1.22 2.02 1.22 3.48v1.56h-6.53l-.02.05c.05.7.3 1.25.72 1.7.43.45 1 .7 1.75.7.65 0 1.2-.1 1.62-.2.44-.14.9-.34 1.42-.6l.8 1.74c-.45.35-1.04.64-1.76.87-.72.24-1.5.36-2.4.36zm-.26-8.76c-.55 0-.98.2-1.3.6-.3.43-.5.96-.58 1.6l.03.06h3.62v-.25c0-.6-.17-1.1-.47-1.44-.3-.36-.73-.54-1.32-.54zm6.08 6.86l1.42-.3V8.83l-1.57-.3v-1.7h4.3l.15 1.53c.25-.55.58-.97 1-1.28.4-.3.86-.46 1.4-.46.15 0 .3.03.48.05.17.02.32.05.43.08l-.3 2.6-1.2-.03c-.44 0-.8.08-1.1.24-.26.16-.47.4-.62.7v5.13l1.4.3v1.7H58.1v-1.7zm8.2 0l1.42-.3V8.83l-1.58-.3v-1.7h4.53v8.55l1.4.3v1.7H66.3v-1.7zm4.37-11.38h-2.95V2.14h2.95v2.14zm2.03 11.38l1.4-.3V8.83l-1.57-.3v-1.7h4.32l.13 1.5c.37-.54.8-.96 1.35-1.26.53-.3 1.13-.45 1.8-.45 1.1 0 1.95.35 2.57 1.02.62.67.93 1.72.93 3.15v4.6l1.42.3v1.7H79.4v-1.7l1.27-.3v-4.6c0-.7-.15-1.2-.44-1.5-.3-.3-.75-.45-1.35-.45-.4 0-.74.08-1.05.23-.3.15-.57.37-.78.65v5.67l1.2.3v1.7H72.7v-1.7zM85.68 12c0-1.6.45-2.87 1.36-3.88.92-1 2.18-1.5 3.8-1.5 1.6 0 2.88.5 3.8 1.5.9 1 1.36 2.3 1.36 3.87v.2c0 1.57-.46 2.87-1.37 3.87-.9 1-2.17 1.5-3.77 1.5-1.63 0-2.9-.5-3.82-1.5-.9-1-1.36-2.3-1.36-3.9V12zm2.95.2c0 .96.18 1.73.53 2.32.35.58.9.87 1.7.87.76 0 1.3-.3 1.66-.9.36-.6.54-1.36.54-2.3V12c0-.95-.18-1.7-.54-2.3-.35-.6-.92-.9-1.7-.9-.75 0-1.3.3-1.66.9-.35.6-.53 1.35-.53 2.3v.2z"/><path fill="#F58C0C" d="M28.7 17.5c-1.53.03-3.02-.55-4.2-1.62-2.02-1.76-2.34-4.92-.72-7.08.2-.27.44-.53.7-.76 1.12-1 2.5-1.58 3.95-1.62h.2v1.52c0 .08.05.14.12.14.08 0 .14-.06.14-.14V6.42l.2.02c1.4.08 2.74.63 3.8 1.62 2 1.75 2.34 4.9.7 7.06-.2.27-.42.54-.7.76-1.16 1.05-2.65 1.63-4.2 1.63z"/><path fill="#60BE74" d="M27.05 4.7c-.46-.15-.88-.38-1.26-.7-.86-.64-1.55-1.6-2.1-2.86l-.25-.5.48.23c.78.4 1.5.93 2.14 1.56.55.58.95 1.26 1.2 2.04l.12.37-.36-.13z"/><path fill="#25272E" d="M29.1 7.94c0 .18-.16.35-.33.35s-.32-.2-.32-.37v-1.3c-1.4.04-2.76.6-3.83 1.58-1.93 1.66-2.23 4.7-.68 6.77.2.27.42.5.68.74 1.15 1.06 2.6 1.6 4.1 1.6 1.5 0 2.94-.54 4.08-1.6 1.94-1.65 2.24-4.7.7-6.77-.22-.26-.43-.5-.7-.74-1.03-.95-2.35-1.5-3.7-1.57v1.3zm-3.2-4.1c.37.28.77.5 1.2.67-.22-.72-.62-1.4-1.14-1.93-.6-.64-1.32-1.15-2.08-1.54.6 1.43 1.36 2.3 2.02 2.8zm1.6 1.5c-.74-.13-1.4-.46-2-.94-.86-.67-1.83-1.86-2.58-3.92-.07-.18.02-.4.2-.45.07-.04.17-.04.24 0 1.15.43 2.18 1.13 3.06 2.03 1.15 1.24 1.4 2.45 1.45 2.88.02.18-.1.37-.28.4-.04 0-.08 0-.1 0zm1.6.58c1.53.07 2.98.68 4.14 1.75 2.2 1.93 2.55 5.4.75 7.78-.25.3-.5.58-.77.8-1.26 1.15-2.86 1.77-4.53 1.75-1.65.02-3.25-.6-4.52-1.75-2.2-1.93-2.54-5.4-.74-7.78.23-.3.48-.57.74-.8 1.2-1.1 2.7-1.7 4.27-1.75v-.4c0-.93.25-1.87.74-2.66.42-.7 1.1-1.2 1.9-1.35.17-.02.34.1.4.3 0 .2-.1.38-.3.4-.6.14-1.14.53-1.5 1.1-.4.66-.6 1.44-.6 2.24v.4z"/></svg>