<svg xmlns="http://www.w3.org/2000/svg" width="42" height="42" fill="none"><path fill="#F58C0C" d="M28.35 8.93h-.7c-.2 0-.35.16-.35.36v.7c0 .17.16.33.36.33h.7c.2 0 .35-.16.34-.36v-.7c0-.2-.16-.35-.35-.35zM41.3 22.3h-9.94l.84-12.64c0-.2-.05-.4-.2-.53-.12-.14-.3-.2-.5-.22h-1.05c-.2.03-.35.18-.35.38v.7c0 .2.16.35.36.35h.3l-.17 2.52L28.54 14c-2.1 1.16-4.65 1.27-6.86.3v-3.9l3.84-.04c.2 0 .35-.16.35-.36v-.7c0-.2-.17-.36-.36-.36l-3.85.02V5.78l7.07-4.53c.17-.1.2-.33.1-.5l-.37-.6c-.1-.15-.3-.2-.47-.1l-7.4 4.74c-.2.1-.33.34-.33.6v3.56L10.5 9c-.38 0-.7.33-.7.7 0 .03 0 .04 0 .06l.8 11.75c-.42.76-.75 1.55-1 2.36-1.22-2.2-3.54-3.58-6.05-3.58-.4 0-.7.3-.7.7 0 1.36.4 2.7 1.14 3.84-.3.15-.6.34-.86.56l-.2.18c-2.46 2.2-3.5 5.6-2.64 8.8l.4 1.66c.55 2.1 1.83 3.9 3.62 5.1 1.54 1.04 3.53 1.1 5.14.2l-.04-.07c1.3.4 2.66.62 4.03.68.14 0 .28 0 .42 0V42h9.23C33.53 42 42 33.5 42 23.02c0 0 0-.02 0-.03 0-.4-.3-.7-.7-.7zm-10.2 1.78v-.4h6.96c-.27 5.72-3.7 10.8-8.9 13.1-1.3.58-2.67.97-4.08 1.15 1.05-.92 1.98-1.97 2.76-3.13 2.13-3.17 3.26-6.9 3.25-10.72zm-10.8-13.7v3.4c-2.3-.64-4.75-.35-6.83.8l-1.87 1.04-.34-5.2 9.04-.05zm-7.6 10.46c.05-.06.04-.15-.02-.2l-.78-.6-.2-2.86 2.44-1.37c2.14-1.16 4.7-1.27 6.92-.26 2.62 1.2 5.66 1.07 8.18-.33l1.23-.7-.3 4.76c-.17-.13-.34-.23-.52-.3l-1.05-.44c-.55-.23-1.2-.2-1.72.1-.54.3-.92.83-1.02 1.45-.75 4.32-3 8.24-6.33 11.07-.24-2.14-1.27-4.12-2.88-5.54l-.2-.18c-1.4-1.27-3.53-1.3-4.98-.07l-.88.74c.2-1.9.93-3.7 2.1-5.24zm-3.65 5.7c-2.47-.35-4.4-2.3-4.75-4.8 2.47.35 4.4 2.3 4.75 4.8zM5.1 39.94c-1.5-1-2.58-2.53-3.03-4.28L1.64 34c-.7-2.68.17-5.53 2.24-7.36l.2-.2c.25-.2.54-.36.85-.46 1.3 1.3 3.05 2 4.87 2 .05 0 .1 0 .14-.02.4-.02.77-.17 1.08-.43l1.34-1.13c.92-.77 2.27-.75 3.16.05l.2.18c1.58 1.4 2.47 3.4 2.47 5.5-2.74 1.92-5.93 3.07-9.25 3.32l-3.1.24c-.36 0-.64.3-.64.7v2.55c0 .25.14.48.36.6l.1.06c.57.35 1.16.65 1.77.9-.83.1-1.66-.1-2.35-.56zm8.4.6c-2.4-.14-4.77-.8-6.88-2v-1.5l2.45-.2c9.1-.7 16.6-7.5 18.17-16.56.03-.2.14-.37.3-.46.17-.1.36-.1.53-.03l1.04.44c.37.14.6.5.6.87v2.97c0 3.54-1.04 7-3.02 9.93-2.94 4.36-7.94 6.83-13.16 6.53zm9.6.04h-2.23c.77-.34 1.52-.74 2.23-1.2v.08c2.28 0 4.54-.48 6.62-1.4 5.7-2.55 9.47-8.12 9.74-14.4h1.13c-.4 9.46-8.1 16.92-17.5 16.9zM33.25 25.1h-.7c-.2 0-.35.16-.35.35v.7c0 .2.16.36.35.36h.7c.2 0 .35-.14.35-.33v-.7c0-.2-.16-.36-.35-.36zm-2.1 7.04h-.7c-.2 0-.35.16-.35.36v.7c0 .2.16.35.35.35h.7c.2 0 .35-.16.35-.35v-.7c0-.2-.16-.36-.35-.36zm2.1-2.8h-.7c-.2 0-.35.14-.35.34v.7c0 .2.16.35.35.35h.7c.2 0 .35-.15.35-.35v-.7c0-.2-.16-.35-.35-.35z"/></svg>