<svg xmlns="http://www.w3.org/2000/svg" width="42" height="38" fill="none"><path fill="#F58C0C" d="M16.08 14.87c-.45 0-.82.37-.82.83 0 .45.37.82.82.82.45 0 .82-.37.82-.82 0-.46-.37-.83-.82-.83zM21 13.22c-.64 0-1.28.05-1.9.17-.45.06-.74.5-.66.94.08.45.5.75.95.66.5-.08 1.05-.13 1.6-.13 4.97 0 9 4.08 9 9.1 0 5-4.03 9.07-9 9.07-5 0-9.03-4.07-9.03-9.08 0-1.94.6-3.8 1.73-5.35.28-.35.2-.87-.17-1.14-.36-.27-.88-.2-1.14.18-1.37 1.85-2.07 4.04-2.07 6.33C10.33 29.9 15.1 34.7 21 34.7s10.65-4.8 10.65-10.73c0-5.93-4.78-10.74-10.66-10.74zm4.88 6.2c-1.1-1.27-2.55-1.97-4.1-1.97-1.56 0-3.02.7-4.1 1.98-.5.6-.9 1.3-1.2 2.05h-1.63c-.46 0-.82.37-.82.82 0 .46.36.83.82.83h1.24c-.06.3-.08.6-.08.92 0 .25.02.5.04.73h-1.22c-.46 0-.82.37-.82.83 0 .47.36.84.82.84h1.57c.3.84.7 1.6 1.26 2.25 1.1 1.27 2.55 1.97 4.1 1.97 1.38 0 2.72-.57 3.76-1.6.32-.32.32-.84 0-1.17-.3-.33-.83-.34-1.16-.02-.73.73-1.65 1.13-2.6 1.13-1.07 0-2.08-.5-2.85-1.4-.3-.33-.53-.73-.73-1.16h4.32c.45 0 .8-.37.8-.82 0-.45-.35-.82-.8-.82h-4.8c-.02-.24-.04-.48-.04-.73 0-.3.03-.62.08-.92h4.75c.45 0 .8-.37.8-.83 0-.45-.35-.82-.8-.82h-4.24c.18-.36.4-.7.65-.98.78-.9 1.8-1.4 2.87-1.4s2.08.5 2.85 1.4c.3.35.82.4 1.16.1.33-.3.37-.83.08-1.17zm14.92 5.24l-2.1-2.76v-6.2c0-5-4.05-9.1-9.02-9.1h-5.92l.55-1.64c1.34-.03 2.4-1.13 2.4-2.48C26.75 1.1 25.65 0 24.3 0c-1.36 0-2.46 1.1-2.46 2.48 0 .8.37 1.5.95 1.95l-.73 2.18h-2.1l-.72-2.16c.58-.45.95-1.16.95-1.95 0-1.38-1.1-2.5-2.46-2.5-1.36 0-2.46 1.1-2.46 2.5 0 1.34 1.08 2.44 2.4 2.47l.56 1.65H12.3c-4.97 0-9.02 4.1-9.02 9.1v6.22L1.2 24.66C.4 25.76 0 26.9 0 28.1c0 2.75 2.3 5.3 6.5 7.17C10.45 37.03 15.6 38 21 38s10.55-.97 14.5-2.73c4.2-1.87 6.5-4.42 6.5-7.18 0-1.2-.4-2.35-1.2-3.45zm-16.52-23c.45 0 .82.36.82.82 0 .45-.37.82-.82.82-.45 0-.82-.37-.82-.82 0-.46.37-.83.82-.83zM17.72 3.3c-.45 0-.82-.37-.82-.82 0-.46.37-.83.82-.83.45 0 .82.37.82.83 0 .45-.37.82-.82.82zM4.92 15.7c0-4.1 3.3-7.44 7.38-7.44h7.05s0 0 .02 0h3.26s0 0 .02 0h7.05c4.07 0 7.38 3.34 7.38 7.44v3.8c-.25-.45-.48-.9-.68-1.37-.45-1.05-.78-2.14-.98-3.26-.5-2.87-3-4.96-5.88-4.96H12.07c-.54 0-1.07.1-1.6.25-.98.28-1.88.88-2.57 1.73-.65.8-1.1 1.76-1.3 2.8-.3 1.66-.9 3.26-1.68 4.74v-3.7zm29.92 18.06c-3.7 1.64-8.74 2.6-13.84 2.6s-10.14-.96-13.84-2.6c-3.5-1.57-5.52-3.64-5.52-5.67 0-.84.3-1.66.88-2.45l2.3-3.03.03-.05c1.67-2.22 2.84-4.85 3.36-7.6.17-.76.5-1.48.97-2.06.5-.57 1.1-1 1.77-1.2.37-.1.75-.14 1.14-.14h17.47c2.1 0 3.9 1.5 4.26 3.6.23 1.24.6 2.46 1.1 3.62.5 1.15 1.14 2.25 1.9 3.26l2.7 3.6c.57.8.87 1.6.87 2.43 0 2.02-2 4.1-5.52 5.66z"/></svg>