<svg xmlns="http://www.w3.org/2000/svg" width="42" height="42" fill="none"><path fill="#F58C0C" d="M37.44 27.43c-.05-.07-.1-.13-.13-.2-.4-.58-1.04-.97-1.76-1.1-.7-.1-1.44.06-2.03.48l-7.8 5.6h-8.2c-.4 0-.7-.3-.7-.7 0-.4.3-.7.7-.7h4.55c1.35 0 2.45-1.1 2.45-2.44 0 0 0-.07 0-.08-.04-1.35-1.18-2.4-2.5-2.37h-9.1c-.82 0-1.6.3-2.22.8l-3.43 2.87c-.16.14-.25.33-.25.54v8.4c0 .4.3.7.7.7h17.37c1.13 0 2.24-.4 3.12-1.12l8.46-7c1.16-.83 1.5-2.42.77-3.64zm-1.62 2.52L27.3 37c-.63.5-1.42.8-2.23.8H8.4v-7.37l3.17-2.64c.37-.33.85-.5 1.32-.5H22c.58 0 1.06.43 1.08 1.04 0 .58-.47 1.05-1.05 1.05H17.5c-1.16 0-2.1.93-2.1 2.1 0 1.15.94 2.1 2.1 2.1h8.4c.15 0 .3-.06.4-.14l8.02-5.72c.3-.2.64-.3 1-.23.34.07.65.26.86.55.02.03.04.06.05.1.36.58.2 1.36-.4 1.8zM7.68 28.7H.16c-.1 0-.16.07-.16.16v1.08c0 .1.07.16.16.16h6.82v10.5H.16c-.1 0-.16.07-.16.16v1.08c0 .1.07.16.16.16h7.52c.4 0 .7-.3.7-.7V29.4c0-.4-.3-.7-.7-.7zM3.5 35c-1.16 0-2.1.94-2.1 2.1 0 1.16.94 2.1 2.1 2.1 1.16 0 2.1-.94 2.1-2.1 0-1.16-.94-2.1-2.1-2.1zm0 2.8c-.4 0-.7-.3-.7-.7 0-.4.3-.7.7-.7.4 0 .7.3.7.7 0 .4-.3.7-.7.7zm37.8-16.1H.7c-.4 0-.7.3-.7.7 0 2.7 2.2 4.9 4.9 4.9h32.2c2.7 0 4.9-2.2 4.9-4.9 0-.4-.3-.7-.7-.7zm-4.2 4.2H4.9c-1.7 0-3.1-1.2-3.43-2.8h39.06c-.33 1.6-1.74 2.8-3.43 2.8zM21 3.5c-10.04 0-18.2 8.16-18.2 18.2v.7c0 .4.3.7.7.7h35c.4 0 .7-.3.7-.7v-.7c0-10.04-8.16-18.2-18.2-18.2zM4.2 21.7c0-9.26 7.54-16.8 16.8-16.8 9.26 0 16.8 7.54 16.8 16.8H4.2zm5.4-10.1c-.06-.07-.16-.06-.22 0-.4.48-.8.98-1.15 1.5-.05.07-.03.18.04.23l.9.6c.07.04.18.02.23-.06.3-.46.66-.9 1.02-1.33.06-.07.06-.17 0-.23l-.8-.7zM21 6.46c0-.1-.07-.16-.16-.16-3.82.04-7.45 1.48-10.26 4.07-.06.06-.07.16 0 .23l.73.78c.08.07.18.07.25 0 2.55-2.33 5.84-3.64 9.3-3.68.1 0 .16-.07.16-.16V6.46zM22.94 0h-3.88c-.1 0-.16.07-.16.16v1.08c0 .1.07.16.16.16h3.88c.1 0 .16-.07.16-.16V.16c0-.1-.07-.16-.16-.16zM21.7.7h-1.4v3.5h1.4V.7z"/></svg>