<svg xmlns="http://www.w3.org/2000/svg" width="33" height="42" fill="none"><path fill="#F58C0C" d="M22.27 18.7c.07.03.15.05.23.05.3 0 .6-.2.7-.5.22-.7.96-1.05 1.63-.82 1.44.5 3-.3 3.5-1.74.13-.4-.08-.8-.46-.96-.4-.13-.8.08-.93.47-.23.7-.96 1.05-1.64.8-1.43-.47-3 .3-3.5 1.76-.12.38.08.8.47.94zM24 13.56c.08.02.16.03.24.03.3 0 .6-.2.7-.5.1-.35.33-.6.64-.77.3-.15.66-.17 1-.06 1.43.5 3-.3 3.48-1.74.13-.4-.07-.8-.46-.94-.38-.14-.8.07-.93.46-.22.68-.96 1.04-1.63.8-.7-.23-1.45-.18-2.1.15-.67.34-1.16.9-1.4 1.6-.13.4.08.8.46.95zm1.73-5.16c.08.03.16.04.24.04.3 0 .6-.2.7-.5.16-.5.7-.77 1.2-.6.62.2 1.27.17 1.85-.12.58-.3 1-.8 1.22-1.4.13-.4-.07-.8-.46-.94-.38-.13-.8.08-.93.46-.08.24-.25.44-.48.55-.23.1-.48.1-.73.03-1.26-.43-2.64.25-3.06 1.53-.13.38.07.8.45.94zm5.32 10.25c-.13-.1-.28-.14-.42-.16 1.45-4.8 2.25-9.46 2.37-13.9.03-1.4-.64-3.28-2-4.14-.67-.42-1.75-.76-3.14-.04-2.2 1.14-3.76 4.5-5.02 7.18-.07.16-.14.3-.2.46-.3-1.3-1.14-2.4-2.34-2.96-.28-1.38-1.36-2.45-2.72-2.73 0-.08-.03-.15-.05-.23-.28-.96-1.12-1.68-2.1-1.8-.55-.07-1.1.05-1.56.32-.4-.22-.84-.34-1.3-.34-1.27 0-2.34.9-2.62 2.1-1.4.38-2.42 1.67-2.43 3.17-1.6.4-2.75 1.84-2.75 3.56 0 .46.1.9.25 1.34-.4.52-.64 1.17-.64 1.84 0 .4.08.8.24 1.16-.73-.8-1.76-1.47-2.92-1.42-.4 0-.73.35-.7.76 0 .4.33.7.72.7.02.02.05 0 .07 0 .67 0 1.3.47 1.77 1-1.16.34-2.56.9-3.22 2.13-.4.75-.44 1.68-.18 2.73-.12.2-.2.46-.18.73L1.24 38c.1 2.24 1.95 4 4.17 4h20.6c2.2 0 4.05-1.76 4.16-3.98l1.28-18.5s0 0 0-.02c.02-.34-.13-.66-.4-.85zm-7.83-8.47c.3-.55.6-1.23.95-1.95 1.1-2.35 2.6-5.6 4.36-6.5.63-.33 1.18-.33 1.68-.02.87.56 1.37 1.9 1.34 2.86-.1 4.37-.9 8.97-2.35 13.67-.06.16-.17.47-.3.9l-1.27.56c-.02 0-.05 0-.07.03-.37.22-.77.33-1.17.33-.4 0-.8-.1-1.18-.33l-.52-.32c-.6-.35-1.27-.53-1.95-.53 0 0 0 0-.02 0-.67 0-1.36.17-1.97.54l-.52.33c-.28.18-.6.26-.93.3.03-.07.05-.13.07-.2.2-.68.42-1.36.64-2.03.1-.27.2-.52.28-.78.2-.53.4-1.06.6-1.58.08-.24.17-.47.26-.7.64-1.58 1.35-3.1 2.12-4.56zm-9.34 1.75c.08-.1.17-.22.24-.32.06-.07.1-.15.16-.23.18-.34.22-.72.14-1.1l3.06-.67c.02.08.04.17.07.26.14.34.4.62.73.82.1.06.23.12.35.2.1.04.2.1.3.15.04.03.1.05.14.08.1.07.17.1.25.18.08.04.15.1.22.14.08.06.16.13.24.2.06.05.13.1.2.17.06.06.13.13.2.2.1.13.22.27.3.44-.3.7-.6 1.4-.88 2.1-.04.12-.1.23-.13.34-.8.2-1.58.6-2.54 1.28-1.2.86-2.1 1.1-3.6.88l-.44-2.06c-.3-1.4.33-2.23.97-3.04zm3.63-4.5c.04 0 .06 0 .08 0 .14 0 .27.1.3.24.02.1-.02.2-.04.24-.03.05-.1.13-.2.15l-4.04.9c-.17.03-.34-.08-.37-.24-.04-.15.07-.32.23-.36l4.05-.9zm-2.35 11.44c-.05 0-.1 0-.17 0-.4.05-.8.16-1.16.33l-.13-.65c.2.02.4.03.6.03 1.3 0 2.3-.38 3.5-1.23.37-.27.7-.47 1-.64-.06.2-.13.4-.2.6-.04.14-.1.28-.14.4-.22.68-.42 1.34-.6 2l-.5-.3c-.6-.35-1.27-.53-1.95-.53 0 0 0 0-.02 0-.07 0-.15 0-.23 0zm-8.77-7.64l.48-.4-.3-.54c-.2-.36-.3-.75-.3-1.14 0-1.2.92-2.17 2.1-2.22l.9-.04-.2-.86C9.02 5.9 9 5.74 9 5.6c0-.93.73-1.73 1.67-1.8l.68-.06V3c.02-.67.56-1.2 1.23-1.2.38 0 .65.18.82.32l.5.47.5-.5c.23-.23.54-.34.86-.3.4.04.75.35.86.75.04.13.05.26.04.4l-.1.82h.84c1.05 0 1.93.83 2 1.9l.04.47.45.17c1.13.4 1.9 1.5 1.86 2.73-.02.52-.18 1.02-.5 1.46-.48-.43-1-.7-1.45-.94-.1-.07-.22-.12-.33-.2-.03 0-.07-.04-.08-.1-.03-.12 0-.25.1-.34.3-.38.44-.9.34-1.37l-.1-.4c-.08-.42-.33-.77-.68-1-.35-.22-.77-.3-1.17-.2l-.2.04-4.27.92c-.4.1-.75.34-.98.7-.23.35-.3.77-.2 1.18l.03.2s0 0 0 .02l.04.2c.1.5.44.9.9 1.1.12.05.2.15.25.24 0 .06 0 .08-.05.16-.07.1-.15.2-.23.3-.1.1-.17.2-.26.32-.03.04-.05.08-.08.12-.07.08-.14.16-.2.25-.03.07-.06.1-.1.17-.05.1-.1.18-.15.27-.02.05-.05.1-.1.16-.04.1-.1.2-.14.3-.02.06-.04.1-.06.16-.07.16-.12.32-.17.5 0 .03 0 .06-.02.1-.02.14-.05.3-.07.46 0 .06 0 .13 0 .2-.02.1-.03.17-.03.26-.02-.02-.03-.04-.04-.05-.12-.17-.25-.32-.38-.47-.04-.05-.08-.1-.12-.14-.1-.12-.22-.23-.33-.33-.03-.05-.07-.1-.1-.1-.14-.15-.28-.26-.42-.36-.03-.03-.07-.05-.1-.08-.1-.07-.2-.13-.32-.2-.05-.02-.1-.05-.15-.07-.1-.06-.22-.1-.33-.15-.04 0-.08-.03-.1-.04-.13-.03-.25-.06-.37-.1-.02 0-.03 0-.05 0-.02 0-.05 0-.07 0-.1 0-.16 0-.24 0-.06 0-.12-.04-.18-.04 0 0-.03 0-.05 0-.1 0-.22.02-.33.04-.06 0-.1.02-.17.03-.14.03-.28.06-.42.1 0 0-.03.02-.06.03-.36.12-.7.3-1.03.5-.06-.16-.1-.33-.1-.52 0-.43.2-.84.53-1.1zm-4.7 6.14c.3-.6 1.05-1.04 2.36-1.42.6-.18 1.18-.5 1.64-.95.2-.2.4-.37.6-.53.6-.48 1.1-.74 1.56-.8 0 0 .02 0 .03 0 .14-.02.28-.02.42 0 .03 0 .06.03.1.03.07.02.14.04.2.07.05 0 .1.04.14.06.06.03.12.06.2.1.04.03.1.07.14.1.06.04.12.08.18.13.05.05.1.1.16.15.07.07.13.1.18.18.06.06.12.13.2.2.04.06.1.1.14.17.07.1.14.18.2.28.05.06.1.1.14.17.08.1.16.23.24.35.04.06.08.1.1.16.13.2.25.4.36.6.54.98.72 2.4.5 3.63-.05 0-.1 0-.13-.02-.28-.03-.55-.12-.8-.27l-.5-.32c-.62-.35-1.3-.53-1.96-.53 0 0-.03 0-.04 0-.68 0-1.36.17-1.97.54l-.27.17c-.43.26-.93.4-1.43.4-.5 0-1-.14-1.43-.4l-1-.6c-.12-.08-.26-.13-.4-.16-.12-.57-.08-1.05.12-1.42zM28.7 37.93c-.07 1.45-1.26 2.6-2.7 2.6H5.4c-1.44 0-2.63-1.15-2.7-2.62L1.5 20.46l.63.38c.7.42 1.47.63 2.25.62.77 0 1.55-.2 2.24-.62l.25-.15c.36-.22.77-.33 1.17-.33.4 0 .8.1 1.17.33l.55.32c.66.4 1.4.56 2.15.52.05 0 .12 0 .2 0 0 0 0-.02 0-.02.5-.05 1-.2 1.46-.47.04-.02.08-.02.12-.04l.53-.34c.38-.22.78-.33 1.2-.33.4 0 .8.1 1.16.33l.52.32c.55.32 1.17.5 1.8.52 0 0 .02 0 .03 0 .2 0 .44 0 .65-.03.12-.02.24-.05.36-.08.07 0 .13-.04.18-.05.33-.1.65-.2.95-.4l.52-.3c.36-.23.76-.34 1.17-.34.4 0 .82.1 1.18.34l.52.32c.6.35 1.3.53 1.97.53 0 0 0 0 .02 0 .66 0 1.32-.18 1.9-.53l1.45-.63c.03-.02.05-.04.08-.06l.1-.04-1.2 17.67zM4.4 31.8h5.13c.4 0 .74-.35.74-.75s-.33-.74-.74-.74H4.4c-.4 0-.73.35-.73.76 0 .4.33.74.73.74zm0 2.94H11c.4 0 .73-.33.73-.74 0-.4-.32-.74-.73-.74H4.4c-.4 0-.73.33-.73.74 0 .4.33.74.73.74zm8.07 1.48H4.4c-.4 0-.73.33-.73.74 0 .4.33.74.73.74h8.07c.4 0 .73-.33.73-.74 0-.4-.33-.74-.73-.74zm4.4 0H15.4c-.4 0-.73.33-.73.74 0 .4.33.74.73.74h1.47c.4 0 .73-.33.73-.74 0-.4-.33-.74-.73-.74z"/></svg>