<svg xmlns="http://www.w3.org/2000/svg" width="42" height="42" fill="none"><path fill="#F58C0C" d="M14.6 16.97c.3-.32.3-.84 0-1.16-.33-.3-.85-.3-1.17 0-.33.34-.33.86 0 1.18.32.32.84.32 1.16 0zm8.1 1.16c.97-.96.97-2.52 0-3.48-.96-.96-2.5-.96-3.47 0-.97.97-.97 2.52 0 3.48.96.96 2.52.96 3.48 0zm-2.3-2.32c.3-.3.83-.3 1.15 0 .32.34.32.86 0 1.18-.32.32-.84.32-1.16 0-.34-.32-.35-.83 0-1.16zm-1.17 8.13c-.97.97-.97 2.52 0 3.48.96 1 2.5 1 3.48 0 .98-.93.98-2.5 0-3.46-.95-.96-2.5-.96-3.46 0zm2.32 2.32c-.32.33-.84.33-1.16 0-.34-.32-.35-.83 0-1.16.3-.34.82-.34 1.14 0 .32.3.32.82 0 1.14zm-7.2-3.9c.1.45.53.74.98.65l11.6-2.32c.44-.1.73-.52.64-.97-.1-.42-.52-.7-.96-.62L15 21.4c-.44.08-.73.5-.64.96zm10.6-17.7c-.23 0-.44.1-.6.23l-8.6 8.6c-.32.33-.32.85 0 1.17.3.32.84.32 1.16 0l8.05-8.03L35.4 17.06 16.96 35.48 6.52 25.04l5.75-5.75c.32-.34.32-.86 0-1.18-.32-.32-.84-.32-1.16 0l-6.3 6.34c-.32.32-.32.84 0 1.16l11.6 11.6c.32.32.84.32 1.16 0l19.58-19.58c.32-.32.32-.84 0-1.16l-11.6-11.6c-.16-.15-.36-.24-.58-.24zM40.6.24l-3.52 3.5c-2.06-1.54-4.9-1.57-6.93-.05L27.27.73c-.97-.97-2.52-.98-3.5 0L.73 23.87c-.96.96-.96 2.52 0 3.48L4 30.6c-.74 2.1-.2 4.45 1.37 6.04 1.6 1.6 3.95 2.1 6.03 1.4l3.24 3.24c.96.96 2.52.96 3.48 0l23.16-23.06c.96-.96.96-2.52 0-3.48l-2.98-2.9c1.5-2 1.5-4.85-.06-6.92l3.52-3.52c.32-.32.32-.84 0-1.16-.32-.32-.84-.32-1.16 0zm-4 11.07c-.16.16-.24.37-.24.6 0 .2.1.42.25.57l3.53 3.4c.32.32.32.83 0 1.15L16.96 40.12c-.32.32-.84.32-1.16 0l-3.64-3.64c-.15-.16-.36-.24-.58-.24-.1 0-.23.03-.34.08-1.58.74-3.48.4-4.72-.84-1.24-1.24-1.58-3.14-.84-4.72.15-.3.08-.68-.16-.92L1.88 26.2c-.32-.32-.32-.84 0-1.16L24.94 1.88c.32-.32.83-.32 1.15 0l3.4 3.5c.3.33.83.36 1.17.02 1.4-1.4 3.6-1.55 5.22-.46l-1.2 1.2c-.93-.44-2.06-.28-2.8.48-.97.96-.97 2.52 0 3.48s2.5.96 3.47 0c.77-.77.9-1.9.48-2.8l1.2-1.2c1.08 1.6.96 3.8-.46 5.22zm-2.38-3.54c.32.32.32.84 0 1.16-.32.32-.84.32-1.16 0-.32-.32-.32-.84 0-1.16.32-.32.84-.32 1.16 0z"/></svg>